<svg width="47" height="55" viewBox="0 0 47 55" fill="none" xmlns="http://www.w3.org/2000/svg">
<g clip-path="url(#clip0_294_1250)">
<path d="M39.7784 55H7.22441C6.39721 54.6399 5.77572 54.1061 5.70569 53.1549C5.6167 51.9582 5.55251 50.7616 5.47956 49.5636C5.2476 45.7757 5.01855 41.9878 4.78221 38.2014C4.50647 33.7708 4.22636 29.3416 3.94917 24.9109C3.70554 21.0169 3.4619 17.1214 3.22118 13.2274C3.15553 12.1628 3.10009 11.0981 3.03882 10.0249H43.9712C43.8866 11.3363 43.802 12.6032 43.7247 13.8702C43.3818 19.4616 43.0463 25.0544 42.6991 30.6458C42.2454 37.9518 41.7639 45.2577 41.3423 52.5666C41.2752 53.7288 40.89 54.5567 39.7754 55H39.7784ZM31.8682 24.7976C31.1665 25.1864 30.5887 25.5078 29.9804 25.845C29.8622 25.6599 29.7528 25.4992 29.6536 25.3313C28.5346 23.4288 27.4127 21.5277 26.3054 19.618C26.0224 19.1301 25.6314 18.9077 25.0624 18.9163C24.0441 18.9321 23.0243 18.9192 22.006 18.9206C21.1365 18.9235 20.7411 19.2392 20.5019 20.1402C21.1321 19.9293 21.4852 20.2177 21.7843 20.7357C23.1119 23.0356 24.4672 25.3198 25.8108 27.6112C25.8911 27.7475 25.9611 27.8896 26.0574 28.066C25.4578 28.419 24.8786 28.7605 24.2017 29.1593C26.2645 29.6486 28.1932 30.1077 30.1467 30.5712C30.7215 28.6414 31.2759 26.7819 31.8682 24.7976ZM14.2476 30.6099C13.0381 32.6732 11.8856 34.6804 10.6864 36.6605C10.3158 37.2731 10.2779 37.7925 10.6733 38.398C11.181 39.18 11.6259 40.0021 12.1001 40.8056C12.5684 41.6005 12.9448 41.7525 13.9412 41.5201C13.4116 41.0839 13.5312 40.6348 13.8303 40.1327C15.1886 37.8513 16.5249 35.5557 17.87 33.2657C17.9561 33.1179 18.0597 32.9802 18.1603 32.8281C18.7891 33.1811 19.3669 33.5053 20.0452 33.8856C19.4529 31.9027 18.8927 30.026 18.3164 28.1005C16.3484 28.5696 14.4226 29.0288 12.3568 29.5209C13.0615 29.9255 13.6348 30.2541 14.2505 30.6085L14.2476 30.6099ZM26.282 41.6091C26.5651 41.6091 26.762 41.6091 26.959 41.6091C29.178 41.6091 31.397 41.6005 33.6145 41.6148C34.1893 41.6191 34.5745 41.401 34.8502 40.9103C35.3243 40.0652 35.8262 39.2373 36.3149 38.4009C36.8022 37.5672 36.7555 37.1669 36.0655 36.3993C35.9487 37.0507 35.5198 37.2085 34.9129 37.2042C32.2212 37.187 29.5296 37.1971 26.8379 37.1971C26.6774 37.1971 26.5155 37.1971 26.2791 37.1971V35.0434C24.7911 36.5801 23.4241 37.9919 22.0425 39.4167C23.4489 40.8644 24.8086 42.2648 26.2791 43.7799V41.6105L26.282 41.6091ZM21.2022 27.5739C21.6092 26.8852 21.9783 26.2338 22.3795 25.6011C22.5531 25.3256 22.5648 25.1104 22.3882 24.8263C21.8412 23.941 21.3291 23.0371 20.798 22.1432C20.3954 21.466 19.7257 21.3942 19.2924 22.0585C18.5995 23.1203 17.994 24.2366 17.3273 25.3715C18.6214 26.1075 19.8746 26.8192 21.2022 27.5739ZM29.1575 33.303C29.5879 34.0376 29.9745 34.7249 30.3947 35.3907C30.4793 35.5241 30.6938 35.6532 30.8499 35.6561C32.0126 35.6776 33.1754 35.6618 34.3396 35.669C34.7933 35.6719 35.0077 35.4351 35.0471 35.0234C35.0632 34.8483 35.0851 34.6388 35.0048 34.4968C34.3687 33.3647 33.7093 32.2442 33.0426 31.0963C31.7194 31.8467 30.4647 32.5598 29.1575 33.3016V33.303ZM20.1007 37.1956C19.2983 37.1956 18.5367 37.1684 17.781 37.2128C17.5636 37.2258 17.2762 37.3922 17.161 37.5744C16.5949 38.4669 16.0712 39.3866 15.5416 40.302C15.1696 40.9462 15.4512 41.5517 16.2185 41.5861C17.5009 41.6435 18.7862 41.6019 20.1021 41.6019V37.1971L20.1007 37.1956Z" fill="#174C90"/>
<path d="M0.0173407 8.06222C0.0173407 7.28026 -0.0308031 6.52842 0.0290119 5.7852C0.109252 4.78371 1.0021 4.08784 2.13713 4.0864C5.06806 4.08066 7.99754 4.08353 10.9285 4.08353C12.4195 4.08353 13.9119 4.08353 15.4978 4.08353C15.4978 3.74636 15.4963 3.43501 15.4978 3.12222C15.5123 1.19529 16.7159 0.00441096 18.6636 0.00297617C21.8848 0.000106577 25.1075 0.000106577 28.3288 0.00297617C30.2779 0.00441096 31.4888 1.19386 31.5034 3.11505C31.5063 3.41492 31.5034 3.71623 31.5034 4.08497C31.7645 4.08497 31.9761 4.08497 32.1876 4.08497C36.3382 4.08497 40.4873 4.08497 44.6379 4.08497C46.2529 4.08497 46.9969 4.82389 46.9984 6.41938C46.9984 6.95312 46.9984 7.4883 46.9984 8.06366H0.0173407V8.06222Z" fill="#174C90"/>
</g>
<defs>
<clipPath id="clip0_294_1250">
<rect width="47" height="55" fill="white"/>
</clipPath>
</defs>
</svg>
