<svg width="44" height="51" viewBox="0 0 44 51" fill="none" xmlns="http://www.w3.org/2000/svg">
<g clip-path="url(#clip0_294_1262)">
<path d="M34.5241 51H9.48341C9.44176 50.9763 9.40255 50.9415 9.35845 50.9315C7.19251 50.4683 5.85717 49.0078 5.65381 46.7766C5.39409 43.9352 5.18338 41.0889 4.95061 38.245C4.67007 34.8222 4.3883 31.3994 4.10776 27.9778C3.85784 24.9185 3.60792 21.8593 3.36046 18.8013C3.25755 17.5325 3.15954 16.2637 3.05786 14.9676H40.9251C40.9349 15.0373 40.9496 15.0846 40.9459 15.1307C40.5931 19.5122 40.2391 23.8951 39.8826 28.2766C39.3962 34.2631 38.9037 40.2484 38.4272 46.2349C38.323 47.5448 38.0094 48.7439 37.0539 49.7001C36.3421 50.4111 35.4662 50.7659 34.5253 51.0013L34.5241 51ZM16.1442 43.6874C15.9812 40.9519 15.8477 38.6833 15.7105 36.4159C15.4606 32.3108 15.2094 28.2044 14.9583 24.0992C14.8615 22.5105 14.7721 20.9205 14.6606 19.3317C14.6018 18.4912 13.9611 17.9085 13.1685 17.9322C12.3587 17.9558 11.751 18.5983 11.7388 19.4537C11.7351 19.6853 11.7559 19.9181 11.7706 20.1497C12.0181 24.2051 12.268 28.2617 12.5155 32.317C12.7446 36.0748 12.9712 39.8326 13.2052 43.5903C13.2444 44.2253 13.5666 44.686 14.1559 44.9164C15.2205 45.3335 16.1773 44.503 16.1442 43.6862V43.6874ZM28.6032 31.4791C28.6032 31.4791 28.6045 31.4791 28.6057 31.4791C28.4697 33.6655 28.3325 35.8519 28.199 38.0371C28.0887 39.8425 27.9662 41.6479 27.8841 43.4546C27.8449 44.32 28.466 44.9774 29.2672 45.0172C30.0684 45.0571 30.7459 44.4532 30.801 43.6015C31.0056 40.3891 31.1967 37.1755 31.3928 33.9618C31.5765 30.9636 31.7615 27.9666 31.944 24.9683C32.0555 23.1467 32.1793 21.3251 32.2638 19.501C32.303 18.6344 31.6807 17.9695 30.8843 17.9334C30.077 17.8973 29.4008 18.5373 29.3407 19.4027C29.3028 19.9493 29.2734 20.4959 29.2403 21.0425C29.0283 24.5213 28.8164 27.999 28.6032 31.4778V31.4791ZM23.4714 31.4753C23.4714 27.5906 23.4714 23.707 23.4714 19.8223C23.4714 18.6282 22.9299 17.9322 22.0037 17.9334C21.0763 17.9334 20.5373 18.627 20.5373 19.8235C20.5373 27.5918 20.5373 35.3613 20.5373 43.1296C20.5373 43.2952 20.5275 43.4633 20.5459 43.6277C20.6145 44.2614 20.9318 44.7122 21.5284 44.9288C22.5281 45.2924 23.4677 44.5466 23.4702 43.3774C23.4763 39.4105 23.4726 35.4423 23.4726 31.4753H23.4714Z" fill="#174C90"/>
<path d="M28.3606 -0.000296021C29.0601 0.291061 29.8282 0.477829 30.4444 0.896188C31.6964 1.74411 32.2355 3.04152 32.271 4.55808C32.282 5.00507 32.2722 5.45207 32.2722 5.97751C32.4621 5.97751 32.6324 5.97751 32.8039 5.97751C35.526 5.97751 38.247 5.96257 40.9691 5.98249C43.1252 5.99743 44.5132 7.94729 43.8198 9.97309C43.4793 10.9692 42.7736 11.598 41.7691 11.8482C41.4407 11.9304 41.0916 11.9491 40.7522 11.9491C28.2527 11.9541 15.752 11.9491 3.25252 11.9578C2.07767 11.9578 1.10251 11.5893 0.458115 10.5521C-0.643232 8.78152 0.339282 6.46186 2.35822 6.05222C2.65836 5.99121 2.97321 5.98 3.2807 5.97876C5.90482 5.97378 8.52895 5.97502 11.1518 5.97502H11.784C11.784 5.27651 11.7203 4.61162 11.7962 3.96291C12.0364 1.89477 13.4513 0.425534 15.4666 0.0706757C15.5278 0.0594696 15.5854 0.0233612 15.6442 -0.00154114C19.883 -0.00154114 24.1218 -0.00154114 28.3606 -0.00154114V-0.000296021ZM14.6666 5.94389H29.3382C29.3382 5.50063 29.3406 5.0885 29.3382 4.67636C29.3296 3.57817 28.755 2.99172 27.6733 2.98799C26.3379 2.983 25.0026 2.98799 23.6673 2.98799C21.1926 2.98799 18.7167 2.983 16.2421 2.99048C15.2828 2.99297 14.6862 3.60307 14.6678 4.56928C14.6593 5.01504 14.6666 5.46079 14.6666 5.94389Z" fill="#174C90"/>
</g>
<defs>
<clipPath id="clip0_294_1262">
<rect width="44" height="51" fill="white"/>
</clipPath>
</defs>
</svg>
