<svg width="58" height="49" viewBox="0 0 58 49" fill="none" xmlns="http://www.w3.org/2000/svg">
<g clip-path="url(#clip0_294_1257)">
<path d="M58 29.3613C57.8818 29.2012 57.7453 29.0501 57.6453 28.8779C54.0905 22.7522 50.5372 16.6249 46.9976 10.4901C46.7899 10.1305 46.5716 10.0097 46.1593 10.0112C39.4666 10.0248 32.7738 10.0248 26.0811 10.0112C25.6915 10.0112 25.4854 10.129 25.2883 10.4704C21.7123 16.6717 18.1241 22.8655 14.5224 29.0501C14.3192 29.3976 14.3465 29.6378 14.536 29.9641C18.1135 36.1201 21.685 42.2806 25.2428 48.4486C25.4642 48.8323 25.6946 49 26.1615 48.9985C32.8163 48.9804 39.4711 48.9819 46.1259 48.9985C46.5655 48.9985 46.7944 48.858 47.0097 48.4834C50.5493 42.3485 54.1026 36.2213 57.6559 30.0955C57.7575 29.9188 57.8833 29.7571 57.9985 29.5879C57.9985 29.5124 57.9985 29.4369 57.9985 29.3613H58ZM35.4206 19.3456C41.0173 19.3411 45.6045 23.8927 45.6196 29.4641C45.6348 35.0656 41.0522 39.6475 35.4312 39.6505C29.8315 39.6535 25.255 35.114 25.2292 29.532C25.2034 23.9426 29.7981 19.3501 35.4206 19.3456Z" fill="#174C90"/>
<path d="M11.6148 31.7074C11.2297 31.0397 10.9205 30.4611 10.5688 29.9097C10.3824 29.6181 10.3854 29.3976 10.5627 29.097C11.6269 27.2962 12.6683 25.4834 13.7173 23.6737C13.8098 23.5135 13.8947 23.3489 14.0023 23.1495C11.7285 21.7158 10.299 19.7172 9.89878 17.063C9.5759 14.9254 10.0473 12.9419 11.257 11.1472C13.5385 7.76332 18.1923 6.23603 22.4732 8.55189C22.74 8.09264 23.0311 7.64095 23.2721 7.16207C23.4707 6.76779 23.7193 6.60766 24.1892 6.6137C26.3251 6.64391 28.4625 6.6273 30.5985 6.6273H31.22C31.123 6.42638 31.0608 6.27682 30.9805 6.13633C29.8875 4.24346 28.7824 2.35815 27.7031 0.457732C27.5106 0.119343 27.2892 0 26.8996 0C21.1331 0.013596 15.3651 0.013596 9.59863 0C9.19995 0 8.99682 0.138981 8.80582 0.471328C5.9256 5.46559 3.03628 10.4538 0.133327 15.4345C-0.0576763 15.7623 -0.0303898 15.9889 0.146971 16.2956C3.04689 21.2793 5.93924 26.2645 8.81794 31.2602C9.01653 31.6047 9.23027 31.7346 9.61834 31.7149C10.2399 31.6847 10.8644 31.7074 11.6148 31.7074Z" fill="#174C90"/>
<path d="M15.7472 20.1689C17.4223 17.2775 19.0807 14.4148 20.7375 11.5536C18.9321 10.2771 15.6138 10.6139 13.9903 13.1836C12.4789 15.575 13.2884 18.8788 15.7472 20.1689Z" fill="#174C90"/>
<path d="M35.5494 22.7416C31.9006 22.6253 28.7733 25.6028 28.6399 29.3205C28.5111 32.9371 31.5095 36.1397 35.134 36.2545C38.9177 36.3738 42.0769 33.4643 42.2118 29.736C42.3482 25.991 39.3695 22.8639 35.5494 22.7416Z" fill="#174C90"/>
</g>
<defs>
<clipPath id="clip0_294_1257">
<rect width="58" height="49" fill="white" transform="matrix(-1 0 0 1 58 0)"/>
</clipPath>
</defs>
</svg>
