<svg width="54" height="53" viewBox="0 0 54 53" fill="none" xmlns="http://www.w3.org/2000/svg">
<g clip-path="url(#clip0_294_1253)">
<path d="M50.1346 45.5068V50.7487C50.9701 50.7487 51.7806 50.7471 52.5927 50.7487C53.4828 50.7518 53.9972 51.1596 54.0019 51.8642C54.0065 52.5751 53.4968 52.997 52.6114 52.997C46.2922 52.9986 39.973 52.997 33.6523 52.997C22.9966 52.997 12.341 52.997 1.6853 52.997C1.47176 52.997 1.25665 53.0048 1.04466 52.9876C0.430506 52.9361 -0.00126969 52.4658 0.00184783 51.8658C0.00496534 51.269 0.441417 50.7846 1.05868 50.7596C1.75389 50.7315 2.45221 50.7534 3.19262 50.7534V47.1676C2.21216 47.1333 1.2925 46.8317 0.768756 45.9537C0.455446 45.4271 0.220074 44.76 0.218515 44.1553C0.21228 42.6148 1.24262 41.7023 3.20198 41.3508V36.0214C2.2636 35.9792 1.37979 35.7246 0.86384 34.9246C0.520914 34.3918 0.248131 33.7216 0.215397 33.0997C0.134342 31.5342 1.2395 30.5155 3.20509 30.1936V24.9049C1.05089 24.3815 0.0860207 23.3831 0.188899 21.8098C0.290218 20.2692 1.34394 19.2927 3.23003 19.0646C3.23003 17.9725 3.23471 16.8694 3.22068 15.7648C3.22068 15.6851 3.0991 15.5804 3.01025 15.532C2.25893 15.1273 2.03914 14.7961 2.14981 14.2024C2.25425 13.6446 2.66888 13.354 3.46229 13.2853C3.51996 13.2806 3.57608 13.2634 3.71481 13.2368V9.55267C3.52776 9.5308 3.37967 9.51517 3.23315 9.49799C2.53171 9.41674 2.10617 8.95271 2.13423 8.30118C2.16228 7.68716 2.60497 7.25124 3.29706 7.24187C4.94934 7.22312 6.60318 7.23406 8.25546 7.23249C9.22813 7.23249 10.2008 7.22 11.1719 7.23562C12.8616 7.26218 13.92 8.34649 13.9293 10.0464C13.9356 11.0979 13.9293 12.1494 13.9293 13.2446H15.6829C15.6829 12.2259 15.6829 11.2166 15.6829 10.2073C15.6845 8.28243 16.718 7.23718 18.6321 7.23249C20.2657 7.22781 21.8993 7.23249 23.5328 7.23249C23.7433 7.23249 23.9537 7.23249 24.2343 7.23249C24.2343 6.6669 24.2296 6.16381 24.2343 5.66227C24.2732 2.31716 26.5833 0.0141695 29.9191 0.00635742C32.583 0.000107786 35.2469 -0.00145462 37.9108 0.00635742C41.2388 0.0172943 43.5597 2.34684 43.566 5.68259C43.5722 9.43236 43.5722 13.1821 43.5597 16.9304C43.5597 17.285 43.6236 17.471 44.0024 17.5959C47.7169 18.8115 50.0598 22.0441 50.1018 25.9751C50.1065 26.3798 50.1018 26.786 50.1018 27.1829C52.0612 27.4157 52.8686 28.0547 52.8889 29.3421C52.9092 30.6452 52.0783 31.3201 50.133 31.5607V41.1305C52.0503 41.3602 52.8686 42.0086 52.8889 43.2913C52.9092 44.5897 52.083 45.2599 50.133 45.5068H50.1346ZM20.2345 34.3012H21.0513C25.5436 34.3012 30.0344 34.3012 34.5267 34.2996C34.7793 34.2996 35.0349 34.2996 35.2827 34.259C35.8907 34.1575 36.2679 33.6731 36.2414 33.0591C36.2118 32.3451 35.7208 31.9607 34.8089 31.9592C30.1809 31.956 25.553 31.9592 20.925 31.9576C20.7006 31.9576 20.4761 31.9576 20.247 31.9576V23.1112H20.9718C25.5421 23.1112 30.1108 23.1112 34.6811 23.1112C34.8759 23.1112 35.0723 23.1222 35.264 23.0972C35.7909 23.03 36.1868 22.6082 36.2367 22.0863C36.2913 21.5145 35.9904 21.0207 35.4495 20.8754C35.1736 20.802 34.8743 20.7911 34.5844 20.7911C30.0344 20.7864 25.4844 20.7879 20.9344 20.7879C20.7084 20.7879 20.4839 20.7879 20.2018 20.7879V15.6007H17.9353V20.7364H11.6598V15.607H9.39491V20.7629C9.21878 20.7754 9.12213 20.7879 9.02549 20.7879C7.10043 20.7895 5.17536 20.7817 3.2503 20.7942C2.38986 20.8004 1.88483 21.266 1.90041 21.9894C1.916 22.6956 2.40545 23.1081 3.24718 23.1112C4.58927 23.1159 5.9298 23.1112 7.27189 23.1112C7.96554 23.1112 8.66074 23.1112 9.384 23.1112V31.9576C9.12993 31.9576 8.90235 31.9576 8.67321 31.9576C6.82608 31.9576 4.97896 31.9451 3.13183 31.9654C2.18255 31.9763 1.63231 32.795 1.9955 33.5966C2.2371 34.1293 2.68914 34.2996 3.23471 34.2996C4.53783 34.2996 5.84095 34.2996 7.14251 34.2996C7.87669 34.2996 8.6093 34.2996 9.37621 34.2996V43.1179C9.12993 43.1179 8.92105 43.1179 8.71218 43.1179C6.82608 43.1179 4.93999 43.1116 3.05389 43.1273C2.40389 43.1335 1.9612 43.5569 1.90353 44.1428C1.8443 44.76 2.18878 45.2599 2.79358 45.3974C2.99934 45.4443 3.21756 45.449 3.42955 45.4506C5.19874 45.4552 6.96793 45.4521 8.73868 45.4521C8.94599 45.4521 9.15175 45.4521 9.42921 45.4521V50.7065H11.7019V45.4881H17.9447V50.7096H20.2174V45.4521C20.5182 45.4521 20.7489 45.4521 20.978 45.4521C25.528 45.4521 30.0781 45.4537 34.6281 45.449C34.9164 45.449 35.2173 45.4349 35.4901 45.3537C35.9967 45.2037 36.2788 44.7147 36.2351 44.1663C36.1931 43.6382 35.808 43.2132 35.2812 43.1398C35.052 43.1085 34.8151 43.1163 34.5829 43.1163C30.0329 43.1163 25.4828 43.1163 20.9328 43.1163H20.233V34.2981L20.2345 34.3012ZM37.1517 50.7159C37.1517 50.3612 37.1766 50.0315 37.1455 49.7081C37.0987 49.2144 37.2499 48.9332 37.716 48.6566C40.9301 46.7552 41.0579 42.0851 37.9295 40.0462C37.2967 39.6337 37.094 39.2353 37.1299 38.5306C37.1548 38.0588 37.2499 37.7807 37.6848 37.5245C40.994 35.5793 41.047 30.7717 37.7736 28.7734C37.2904 28.4781 37.0473 28.1969 37.1486 27.6438C37.1657 27.55 37.1642 27.4469 37.1486 27.3516C37.0675 26.8704 37.2546 26.6079 37.6926 26.3532C40.1632 24.9205 40.9457 21.7145 39.429 19.2833C39.0955 18.749 38.6325 18.2975 38.1976 17.7725C38.5063 17.6584 38.8196 17.5413 39.1391 17.4241C39.1391 13.4212 39.1438 9.45893 39.1344 5.49666C39.1344 4.85295 38.7557 4.44985 38.1259 4.44672C35.3077 4.4311 32.4879 4.43578 29.6697 4.4436C29.0992 4.44516 28.7375 4.78576 28.6845 5.33104C28.6237 5.94038 28.6705 6.56066 28.6705 7.23562C28.9651 7.23562 29.1942 7.23562 29.4234 7.23562C31.2315 7.23562 33.0397 7.22624 34.8479 7.24499C35.5415 7.25281 35.9795 7.68872 36.0044 8.30899C36.0309 8.9652 35.6085 9.42143 34.9024 9.49955C34.7543 9.51673 34.6062 9.5308 34.455 9.54642V13.2368C35.5431 13.3915 35.9062 13.6352 35.9935 14.2446C36.0855 14.8805 35.8236 15.2305 34.9445 15.6367V19.0584C36.8119 19.338 37.8594 20.2302 37.917 21.7332C37.9389 22.3207 37.7471 22.9784 37.465 23.5018C36.9459 24.469 35.9779 24.7986 34.9476 24.8596V30.2249C36.7262 30.3999 37.8734 31.3779 37.9139 32.9044C37.9295 33.5247 37.7019 34.2168 37.3933 34.7668C36.8805 35.6839 35.9327 35.973 34.9523 36.0292V41.3711C36.8446 41.6367 37.8952 42.6367 37.9529 44.1881C38.0121 45.7771 36.9896 46.8098 34.9383 47.2083V50.719H37.1517V50.7159ZM24.1922 13.2603V9.50267C22.2313 9.50267 20.314 9.4933 18.3983 9.52142C18.2455 9.52298 17.9696 9.77922 17.965 9.92452C17.9275 11.0276 17.9447 12.1322 17.9447 13.2603H24.1938H24.1922ZM11.6863 13.265C11.6863 12.2228 11.6894 11.251 11.6863 10.2792C11.6832 9.56361 11.6239 9.50267 10.9318 9.50267C9.45415 9.50111 7.97801 9.50111 6.5003 9.50267C6.33352 9.50267 6.16829 9.52611 6.028 9.53548V13.265H11.6863ZM32.106 13.2571V9.53548H28.6908V13.2571H32.106Z" fill="#174C90"/>
<path d="M17.882 43.0912H11.728V34.3402H17.882V43.0912Z" fill="#174C90"/>
<path d="M11.7234 23.1346H17.8836V31.4013H11.7234V23.1346Z" fill="#174C90"/>
</g>
<defs>
<clipPath id="clip0_294_1253">
<rect width="54" height="53" fill="white"/>
</clipPath>
</defs>
</svg>
