<svg width="49" height="59" viewBox="0 0 49 59" fill="none" xmlns="http://www.w3.org/2000/svg">
<g clip-path="url(#clip0_294_1242)">
<path d="M0.0336914 45.1921V24.2025H25.496C25.496 25.3186 25.5102 26.4488 25.4783 27.5754C25.4747 27.7037 25.2335 27.8566 25.0703 27.941C24.4246 28.2785 23.7647 28.586 23.1172 28.9165C21.8808 29.5457 21.2529 30.5475 21.2529 31.9326C21.2529 33.1172 21.299 34.3036 21.2387 35.4847C21.1837 36.5481 21.3558 37.5306 21.9465 38.4235C22.1682 38.7574 22.1877 39.0562 21.9483 39.3831C21.1021 40.5361 21.2139 41.8649 21.2689 43.1761C21.2777 43.4046 21.4054 43.6331 21.5048 43.851C21.7035 44.2834 21.9199 44.7087 22.1576 45.1921H0.0336914ZM2.17477 30.5159V39.9087H4.21651V30.5159H2.17477ZM4.22183 26.3205H2.17832V28.347H4.22183V26.3205Z" fill="#174C90"/>
<path d="M48.8723 52.5741C48.8723 54.0927 48.8989 55.4953 48.8634 56.8961C48.835 58.0105 47.9374 58.8682 46.8075 58.9068C46.0554 58.9332 45.2997 58.9525 44.5529 58.8963C44.2283 58.8717 43.8699 58.7135 43.6109 58.5096C42.1883 57.3865 40.6858 57.39 39.2543 58.5219C38.9705 58.7469 38.5855 58.8453 38.252 59.0018C38.252 57.5464 38.2059 56.2177 38.2662 54.8942C38.3124 53.873 38.1545 52.9327 37.5815 52.082C37.3296 51.7094 37.3261 51.3596 37.5886 51.0028C38.4294 49.8639 38.3283 48.5456 38.213 47.2696C38.1616 46.7142 37.7341 46.1992 37.5425 45.6456C37.4556 45.3942 37.413 45.0093 37.546 44.8212C38.3762 43.6506 38.3372 42.3272 38.2183 41.023C38.1669 40.4658 37.8245 39.9192 37.5514 39.4007C37.3669 39.0509 37.3296 38.7715 37.5514 38.4358C38.1403 37.5447 38.3194 36.5639 38.2645 35.497C38.2041 34.3159 38.2503 33.1295 38.2503 31.9449C38.2503 30.5634 37.6312 29.5545 36.3948 28.9217C35.7863 28.6106 35.185 28.2784 34.5553 28.0148C34.1242 27.8338 33.9805 27.5912 33.9894 27.1272C34.0373 24.6173 34.7947 22.3517 36.2671 20.3146C37.1434 19.1036 38.0427 17.9067 38.8711 16.6641C39.1212 16.2897 39.272 15.7888 39.2915 15.337C39.3483 14.0944 39.311 12.8482 39.311 11.5704H43.5613C43.5613 12.6057 43.6145 13.6515 43.5453 14.6885C43.4815 15.664 43.7582 16.4584 44.3613 17.2282C45.2695 18.3865 46.1157 19.5958 46.9352 20.8191C47.3929 21.5028 47.7423 22.2586 48.2053 23.0987H40.4162V25.2131H48.7197C48.7836 25.9232 48.8439 26.5841 48.9095 27.3223H40.4055V29.4121H48.8315V31.5265H40.4197V33.6287H48.4288C48.2621 34.221 48.0918 34.736 47.9747 35.2633C47.6643 36.6694 47.8186 38.0438 48.2674 39.4077C48.5441 40.2461 48.741 41.1109 48.9965 42.0512H40.4215V44.1639H48.8368V46.2555H40.4126V48.3699H48.8208V50.4843H40.4038V52.5759H48.867L48.8723 52.5741Z" fill="#174C90"/>
<path d="M27.6264 26.918C29.0668 27.4559 30.4326 27.4436 31.8766 26.9251C31.8766 27.3926 31.889 27.7986 31.873 28.2029C31.8517 28.7759 32.1125 29.1573 32.6216 29.4051C33.5352 29.8498 34.4363 30.3138 35.3534 30.7514C35.8927 31.0098 36.1392 31.4018 36.1304 32.0029C36.1108 33.3844 36.1783 34.7694 36.0967 36.1456C36.0647 36.6799 35.7561 37.2089 35.506 37.7081C35.4474 37.8259 35.1175 37.8487 34.9135 37.8487C32.391 37.8575 29.8668 37.854 27.3443 37.854H26.5975V39.9596H27.2911C29.7036 39.9596 32.1161 39.9596 34.5285 39.9596C35.4616 39.9596 36.0505 40.4658 36.1144 41.4185C36.1658 42.1989 36.1942 42.9792 35.7312 43.7051C35.5113 44.0496 35.3126 44.1832 34.9082 44.1797C32.3626 44.1621 29.8171 44.1709 27.2734 44.1709C27.0587 44.1709 26.8441 44.1709 26.5975 44.1709V46.2765H27.3C29.6894 46.2765 32.0806 46.2765 34.47 46.2765C35.4563 46.2765 36.0186 46.7107 36.1073 47.6774C36.1783 48.4525 36.1978 49.2294 35.7596 49.9693C35.5184 50.3788 35.2807 50.4984 34.8354 50.4966C32.1143 50.479 29.3931 50.4878 26.6188 50.4878V52.5935H27.3071C29.6965 52.5935 32.0877 52.5935 34.4771 52.5935C35.4616 52.5935 36.0754 53.0961 36.1126 54.0663C36.1605 55.3371 36.141 56.6096 36.1126 57.8822C36.0984 58.4956 35.6691 58.9016 35.0359 58.9033C31.5165 58.9156 27.9971 58.9174 24.4795 58.9033C23.7877 58.8998 23.3903 58.4674 23.3815 57.7644C23.3673 56.5798 23.3229 55.3916 23.4027 54.214C23.4364 53.7201 23.6848 53.1998 23.9633 52.7727C24.5079 51.9343 24.499 51.1715 23.9686 50.3314C23.6121 49.7654 23.2236 49.1626 23.3815 48.4332C23.5074 47.8479 23.5517 47.1958 23.8515 46.7054C24.4706 45.693 24.5558 44.7738 23.848 43.7913C23.4364 43.22 23.2289 42.5469 23.3956 41.8631C23.5677 41.1566 23.8107 40.45 24.1389 39.8014C24.4582 39.1669 24.515 38.6063 24.1158 38.0139C23.4772 37.0648 23.291 36.0243 23.3655 34.8924C23.4311 33.9099 23.3885 32.9186 23.3761 31.9326C23.369 31.3877 23.6085 31.0186 24.0963 30.7831C24.9301 30.3788 25.7425 29.9306 26.5922 29.5615C27.3638 29.2276 27.7363 28.7161 27.6335 27.8707C27.5998 27.5912 27.6281 27.303 27.6281 26.9163L27.6264 26.918ZM27.5856 35.7378V32.6391H25.5562V35.7378H27.5856Z" fill="#174C90"/>
<path d="M25.4499 22.0371H0.0371905C-0.140198 19.5518 0.326334 17.223 1.51129 15.0558C3.05812 12.226 5.36594 10.2452 8.42234 9.13263C9.45829 8.75474 9.56295 8.59655 9.56649 7.49803C9.56649 6.79674 9.57359 6.09545 9.57891 5.39416C9.57891 5.35549 9.61084 5.31858 9.64277 5.25003H15.9401C15.9401 6.00581 15.9401 6.76335 15.9401 7.52088C15.9401 8.60007 16.0642 8.77056 17.1037 9.14141C22.4804 11.059 26.0246 16.5076 25.4516 22.0371H25.4499ZM5.12114 13.6919C3.44837 15.4829 2.48692 17.4585 2.21552 19.8348C2.93217 19.9157 3.57964 19.9895 4.30338 20.0721C4.53576 18.1879 5.31982 16.5779 6.55799 15.221C6.07194 14.7043 5.62315 14.2262 5.11937 13.6919H5.12114ZM9.46006 10.943C8.56425 11.3754 7.71633 11.7831 6.82584 12.2137C7.27109 12.8764 7.63651 13.416 8.00193 13.9608C8.72745 13.6128 9.41039 13.2859 10.1182 12.9467C9.90531 12.2981 9.70308 11.6812 9.46006 10.943Z" fill="#174C90"/>
<path d="M21.253 58.6133C19.3159 59.2056 17.5083 58.935 15.8551 57.7784C14.4466 56.7942 12.9335 56.4391 11.2784 56.9611C10.741 57.1299 10.2265 57.4199 9.75645 57.7345C7.6881 59.1178 5.50977 59.355 3.30128 58.2091C1.09457 57.0631 0.017824 55.1596 0.00540681 52.6866C-0.00346261 50.9342 0.00540681 49.1836 0.00540681 47.3821H21.2015C21.2175 47.484 21.2601 47.6088 21.2494 47.7283C21.1466 48.9798 21.3062 50.1644 22.0229 51.2453C22.124 51.3965 22.1045 51.734 21.998 51.8939C21.3169 52.9379 21.1767 54.0734 21.2406 55.2844C21.2991 56.3741 21.253 57.4691 21.253 58.6133Z" fill="#174C90"/>
<path d="M15.9402 0C15.9402 0.942088 15.9402 1.83848 15.9402 2.73311C15.9402 2.83857 15.926 2.94227 15.9172 3.0776H9.61987V0H15.9402Z" fill="#174C90"/>
<path d="M29.7587 23.0038C30.3423 23.1884 30.917 23.2885 31.4084 23.5434C32.0452 23.8738 32.0151 24.4169 31.4084 24.8159C30.5764 25.3643 28.8504 25.352 28.054 24.7931C27.4917 24.3976 27.4633 23.8703 28.0735 23.5557C28.5844 23.2903 29.1804 23.1849 29.7587 23.0038Z" fill="#174C90"/>
</g>
<defs>
<clipPath id="clip0_294_1242">
<rect width="49" height="59" fill="white"/>
</clipPath>
</defs>
</svg>
