<svg width="62" height="66" viewBox="0 0 62 66" fill="none" xmlns="http://www.w3.org/2000/svg">
<g clip-path="url(#clip0_294_1229)">
<path d="M42.658 45.8962C42.3918 45.0691 42.1762 44.3132 41.8932 43.5836C41.8332 43.428 41.5389 43.3061 41.3365 43.2742C38.8679 42.8766 36.3974 42.4977 33.9269 42.1132C33.7657 42.0888 33.6064 42.0513 33.4452 42.0213C32.9841 41.9369 32.7086 41.6706 32.8023 41.1942C32.896 40.7253 33.2465 40.579 33.7095 40.6522C35.4864 40.9335 37.2634 41.2092 39.0422 41.4887C40.1031 41.6556 41.164 41.8356 42.2287 41.9838C42.7029 42.0494 42.9841 42.2689 43.1284 42.7321C43.5071 43.9587 43.9607 45.1666 44.2793 46.4082C44.4049 46.8996 44.2531 47.4622 44.2287 47.993C44.2231 48.1055 44.2287 48.2181 44.2287 48.3831C46.1462 48.6945 48.0375 49.2684 49.9157 49.2252C51.5577 49.1877 53.0835 49.6247 54.673 49.7204C55.2559 49.756 55.6964 49.9792 56.0713 50.4856C56.9466 51.6691 57.8969 52.7962 58.8604 54.0022C58.3599 54.3717 57.882 54.7224 57.359 55.1088C56.6486 54.1523 55.9419 53.2501 55.2934 52.3105C54.956 51.821 54.5286 51.6128 53.9626 51.5359C52.7367 51.369 51.5089 51.1927 50.2924 50.962C48.2175 50.5662 46.1519 50.1274 43.9944 49.6866C43.8951 50.2005 43.7976 50.5981 43.7432 51.0014C43.657 51.6447 43.314 51.8885 42.6786 51.7872C39.0572 51.2077 35.4321 50.6375 31.8107 50.0617C30.8641 49.9117 29.9138 49.7823 28.9747 49.6022C27.7845 49.3734 27.0103 48.6476 26.7104 47.4772C26.6092 47.0796 26.4162 46.9577 26.0506 46.9033C24.4555 46.6651 22.866 46.3988 21.2728 46.1531C17.4058 45.5567 14.0675 48.3587 13.9363 52.2992C13.8295 55.5589 11.9963 58.0684 9.03659 59.0118C4.70294 60.3922 0.0806344 57.1831 0.0393973 52.635C-0.029956 44.4933 0.0150299 36.3478 0.0112811 28.2043C0.0112811 26.6607 -0.0018398 25.1153 0.0150299 23.5717C0.0431461 21.0416 1.72637 18.9598 4.06377 18.5415C6.58485 18.0895 8.80791 19.3405 9.77885 21.7693C10.1762 22.7633 10.5549 23.7668 10.9391 24.7608C14.2587 23.898 15.1172 22.754 15.4771 18.6991H29.8538C29.8538 19.0329 29.8501 19.3724 29.8538 19.7118C29.8819 22.0957 31.0516 23.6955 33.299 24.4326C35.3552 25.1078 36.5342 26.687 36.5399 28.8382C36.553 32.4411 36.5436 36.0459 36.5436 39.6488C36.5436 39.8082 36.5436 39.9695 36.5436 40.217C35.3665 40.0483 34.2512 39.8888 33.0722 39.72C33.0722 37.9176 33.0853 36.119 33.0647 34.3222C33.0572 33.7183 33.046 33.0956 32.8979 32.5161C32.4162 30.6331 30.7854 29.3483 28.851 29.339C24.6879 29.3165 20.5249 29.3127 16.3618 29.339C13.9588 29.354 12.1256 31.2689 12.1181 33.7408C12.1031 38.8423 12.1575 43.9437 12.0863 49.0452C12.0638 50.5719 11.8088 52.1136 11.4883 53.6121C11.179 55.0563 10.2156 56.0709 8.77042 56.7199C8.75355 56.4442 8.72731 56.2266 8.72731 56.009C8.72543 47.0234 8.73106 38.0377 8.71794 29.052C8.71794 27.9623 8.96536 26.9795 9.58017 26.0737C9.69638 25.9011 9.72824 25.586 9.65702 25.3872C9.27464 24.3088 8.86601 23.2397 8.43303 22.18C7.73574 20.4714 6.08626 19.5843 4.29994 19.9294C2.62796 20.252 1.42084 21.7055 1.41897 23.4985C1.40772 33.1388 1.39835 42.7809 1.42459 52.4211C1.43396 55.512 3.93443 57.9315 6.98973 57.9258C9.97754 57.9202 12.4218 55.5289 12.5211 52.5149C12.6954 47.224 16.8117 43.9137 22.0544 44.8346C23.4808 45.0859 24.9166 45.281 26.3412 45.5417C26.7104 45.6092 26.866 45.5061 27.0628 45.2116C27.7282 44.2044 28.6861 43.7393 29.8876 43.9231C33.9982 44.5495 38.1069 45.2003 42.2156 45.8399C42.3243 45.8568 42.4349 45.8662 42.6542 45.8943L42.658 45.8962Z" fill="#174C90"/>
<path d="M13.5182 47.0571C13.5182 46.6595 13.5182 46.457 13.5182 46.2525C13.5182 42.162 13.5164 38.0714 13.5182 33.979C13.5182 31.8972 14.6897 30.7362 16.7853 30.7362C20.6635 30.7344 24.5435 30.7344 28.4217 30.7362C30.5173 30.7362 31.6626 31.8784 31.6682 33.9884C31.6757 36.8411 31.6719 39.6919 31.6682 42.5446C31.6682 42.7715 31.6457 43.0003 31.6307 43.2948C31.0271 43.2179 30.4798 43.1429 29.9306 43.0791C28.6579 42.931 27.5707 43.3248 26.7235 44.2832C26.4348 44.6114 26.1649 44.6808 25.7544 44.6077C24.238 44.3395 22.7216 44.0431 21.1921 43.8762C18.4198 43.5724 16.0431 44.4689 14.0749 46.4438C13.9287 46.5901 13.7956 46.7514 13.5164 47.059L13.5182 47.0571Z" fill="#174C90"/>
<path d="M36.5455 51.6616C36.5455 51.9204 36.5455 52.1042 36.5455 52.288C36.5455 55.4464 36.5586 58.6029 36.5399 61.7613C36.5267 64.237 34.7592 65.9887 32.2756 65.9925C25.8463 66.0019 19.4171 66.0019 12.9879 65.9925C10.5118 65.9887 8.75543 64.2182 8.72918 61.7482C8.72356 61.1874 8.72918 60.6285 8.72918 60.2196C10.1144 59.4338 11.4133 58.6948 12.7629 57.9296C13.3702 58.8392 14.2737 59.6157 15.5389 59.8595C15.8801 59.9252 16.2325 59.9627 16.5792 59.9627C20.5774 59.9702 24.5755 59.972 28.5736 59.9645C31.2072 59.9608 33.0216 58.1772 33.0685 55.5345C33.0947 54.0885 33.0722 52.6425 33.0722 51.1176C34.2531 51.3014 35.3534 51.4721 36.5455 51.6578V51.6616Z" fill="#174C90"/>
<path d="M22.5492 58.5654C20.5398 58.5654 18.5304 58.5598 16.5229 58.5673C15.6832 58.571 14.9709 58.2841 14.3823 57.6933C13.6626 56.9712 13.6869 56.6355 14.0131 55.6733C14.3617 54.6474 14.6935 53.5671 14.7441 52.4962C14.9184 48.8314 17.6963 46.4626 21.3289 47.014C22.6429 47.2147 23.9568 47.4285 25.2727 47.6235C25.6719 47.6817 25.9081 47.8336 26.0824 48.2462C26.5866 49.4447 27.5164 50.1818 28.8041 50.4256C29.5838 50.5719 30.3655 50.7163 31.1527 50.8044C31.5876 50.8532 31.6832 51.0464 31.6794 51.4384C31.6626 52.8413 31.7 54.2442 31.6626 55.6452C31.6157 57.3894 30.3973 58.5523 28.6485 58.5616C26.6166 58.571 24.5829 58.5635 22.551 58.5635L22.5492 58.5654Z" fill="#174C90"/>
<path d="M22.613 17.238C19.8801 17.238 17.1453 17.2493 14.4124 17.2343C12.8735 17.2249 11.8051 16.2234 11.7826 14.8186C11.7601 13.4119 12.7966 12.3485 14.2531 12.341C17.4546 12.326 20.6542 12.3354 23.8557 12.3354C26.1912 12.3354 28.5286 12.3298 30.8641 12.3373C32.4105 12.341 33.4733 13.3163 33.4995 14.7304C33.5258 16.1577 32.4368 17.2249 30.8829 17.2343C28.1256 17.2512 25.3702 17.2399 22.613 17.2399V17.238Z" fill="#174C90"/>
<path d="M22.6823 0.00374578C25.8388 0.00374578 28.9935 -0.00938296 32.15 0.0225011C32.5305 0.0262522 33.001 0.17817 33.2653 0.433243C33.7657 0.91713 33.4733 1.7855 32.7873 2.00494C32.5286 2.08746 32.2362 2.08934 31.9588 2.08934C25.7414 2.09309 19.5239 2.09309 13.3046 2.09309C13.1641 2.09309 13.0235 2.09872 12.8848 2.08934C12.21 2.0387 11.7939 1.64296 11.7882 1.05217C11.7845 0.427616 12.2156 0.0131234 12.9354 0.00937237C15.6477 -5.29061e-06 18.3581 0.00562131 21.0703 0.00562131C21.6083 0.00562131 22.1462 0.00562131 22.6823 0.00562131V0.00374578Z" fill="#174C90"/>
<path d="M17.7582 10.88C17.6701 9.33828 18.7272 8.12857 20.2905 8.0648C21.8538 8.00103 23.4264 7.99915 24.9897 8.0648C26.5548 8.13044 27.612 9.34954 27.5089 10.88H17.7582Z" fill="#174C90"/>
<path d="M2.84538 38.7297C2.84538 36.858 2.84913 34.9862 2.84351 33.1144C2.84351 32.5968 2.85475 32.051 3.53142 32.0341C4.20995 32.0191 4.25307 32.548 4.25307 33.0769C4.24744 36.8898 4.24744 40.7047 4.25307 44.5176C4.25307 45.0222 4.20995 45.5154 3.5689 45.5229C2.87912 45.5323 2.84351 45.0109 2.84538 44.4839C2.851 42.5652 2.84725 40.6465 2.84725 38.7279L2.84538 38.7297Z" fill="#174C90"/>
<path d="M57.4602 56.9018C58.4705 56.1647 59.4583 55.4426 60.5024 54.683C61.0103 55.3807 61.5033 56.0259 61.9513 56.7011C62.0375 56.8305 62.0038 57.1062 61.9251 57.2638C61.4133 58.2991 60.5549 58.8899 59.4265 59.0605C59.2503 59.0868 58.9785 58.9536 58.8623 58.8055C58.3843 58.2053 57.9494 57.5732 57.464 56.9018H57.4602Z" fill="#174C90"/>
<path d="M21.1284 3.52412H24.1425V6.58687H21.1284V3.52412Z" fill="#174C90"/>
<path d="M4.24176 28.6506C4.24176 28.977 4.32986 29.3408 4.21552 29.6184C4.10305 29.8885 3.78253 30.2449 3.55197 30.2467C3.31955 30.2467 2.92404 29.8847 2.88468 29.6353C2.78534 29.022 2.8322 28.3806 2.85657 27.7523C2.87344 27.3153 3.1471 26.9946 3.57072 27.0996C3.83126 27.1634 4.10305 27.4841 4.21927 27.7523C4.32986 28.0073 4.24363 28.3487 4.24176 28.6506Z" fill="#174C90"/>
<path d="M36.5061 43.3661V44.0788C35.4602 43.9212 34.4499 43.7956 33.4564 43.5949C33.2671 43.5574 33.1415 43.2142 32.986 43.0116L33.164 42.8315C34.2587 43.006 35.3515 43.1823 36.5061 43.3679V43.3661Z" fill="#174C90"/>
</g>
<defs>
<clipPath id="clip0_294_1229">
<rect width="62" height="66" fill="white"/>
</clipPath>
</defs>
</svg>
