<svg width="47" height="59" viewBox="0 0 47 59" fill="none" xmlns="http://www.w3.org/2000/svg">
<g clip-path="url(#clip0_294_1225)">
<path d="M34.6766 0C35.1147 0.224544 35.6055 0.387223 35.984 0.687379C36.9863 1.48245 37.273 2.8595 36.7477 4.01658C36.2156 5.18971 34.9886 5.83814 33.6743 5.64109C32.4886 5.46466 31.4656 4.39464 31.3372 3.19402C31.1973 1.87654 31.8945 0.698835 33.1078 0.208505C33.2844 0.137476 33.461 0.0687379 33.6376 0C33.984 0 34.3303 0 34.6766 0Z" fill="#174C90"/>
<path d="M15.656 17.7687H11.4267V12.8265H35.5528V17.7527H31.3739C31.351 17.8902 31.3235 17.9795 31.3235 18.0689C31.3212 20.2387 31.3097 22.4085 31.3349 24.5784C31.3372 24.8419 31.4817 25.126 31.6285 25.3597C36.3464 32.9117 41.0734 40.4568 45.7959 48.0065C47.289 50.394 47.4129 52.8755 46.0551 55.3248C44.7088 57.7536 42.5459 58.9863 39.7592 58.9908C28.8991 59.0069 18.039 59.0069 7.17896 58.9931C1.93354 58.9863 -1.5137 53.6476 0.658314 48.9276C0.80281 48.616 0.981709 48.3181 1.16519 48.0249C5.88767 40.4752 10.617 32.93 15.328 25.3757C15.5184 25.0733 15.6331 24.6723 15.64 24.3149C15.6698 22.3559 15.6537 20.3991 15.6537 18.4401C15.6537 18.2339 15.6537 18.0299 15.6537 17.771L15.656 17.7687ZM34.7432 39.7672C34.5826 39.4945 34.4817 39.3135 34.3716 39.1393C31.8074 35.0403 29.234 30.9458 26.6881 26.8353C26.4817 26.5007 26.3624 26.0585 26.3579 25.6621C26.328 23.2426 26.3441 20.823 26.3418 18.4057C26.3418 18.2018 26.3235 17.9979 26.3143 17.8008H20.6308C20.6308 18.0483 20.6308 18.2545 20.6308 18.463C20.6308 20.8619 20.6468 23.2632 20.617 25.6621C20.6124 26.0562 20.4932 26.5007 20.2868 26.8353C17.7294 30.9618 15.1468 35.0724 12.5712 39.1875C12.4657 39.357 12.3716 39.5334 12.2386 39.7672H34.7432Z" fill="#174C90"/>
<path d="M27.0505 10.6406C25.0826 10.6452 23.4908 9.06653 23.4885 7.10292C23.4885 5.13931 25.0688 3.55834 27.0367 3.55605C29.0023 3.55605 30.6009 5.13473 30.6055 7.08917C30.6101 9.03904 29.0115 10.6338 27.0482 10.6383L27.0505 10.6406Z" fill="#174C90"/>
</g>
<defs>
<clipPath id="clip0_294_1225">
<rect width="47" height="59" fill="white"/>
</clipPath>
</defs>
</svg>
