<svg width="112" height="105" viewBox="0 0 112 105" fill="none" xmlns="http://www.w3.org/2000/svg">
<g clip-path="url(#clip0_324_323)">
<g filter="url(#filter0_d_324_323)">
<circle cx="56" cy="53.0132" r="40" fill="white"/>
</g>
<path d="M54.9062 63.9531C55.3984 64.7188 56.5469 64.7188 57.0391 63.9531C65.0234 52.4688 66.5 51.2656 66.5 47C66.5 41.2031 61.7969 36.5 56 36.5C50.1484 36.5 45.5 41.2031 45.5 47C45.5 51.2656 46.9219 52.4688 54.9062 63.9531ZM56 51.375C53.5391 51.375 51.625 49.4609 51.625 47C51.625 44.5938 53.5391 42.625 56 42.625C58.4062 42.625 60.375 44.5938 60.375 47C60.375 49.4609 58.4062 51.375 56 51.375Z" fill="#FF5851"/>
</g>
<defs>
<filter id="filter0_d_324_323" x="0" y="-0.986816" width="112" height="112" filterUnits="userSpaceOnUse" color-interpolation-filters="sRGB">
<feFlood flood-opacity="0" result="BackgroundImageFix"/>
<feColorMatrix in="SourceAlpha" type="matrix" values="0 0 0 0 0 0 0 0 0 0 0 0 0 0 0 0 0 0 127 0" result="hardAlpha"/>
<feOffset dy="2"/>
<feGaussianBlur stdDeviation="8"/>
<feColorMatrix type="matrix" values="0 0 0 0 0.0776 0 0 0 0 0.0917531 0 0 0 0 0.471057 0 0 0 0.14007 0"/>
<feBlend mode="normal" in2="BackgroundImageFix" result="effect1_dropShadow_324_323"/>
<feBlend mode="normal" in="SourceGraphic" in2="effect1_dropShadow_324_323" result="shape"/>
</filter>
<clipPath id="clip0_324_323">
<rect width="112" height="104.106" fill="white"/>
</clipPath>
</defs>
</svg>
