<svg width="112" height="112" viewBox="0 0 112 112" fill="none" xmlns="http://www.w3.org/2000/svg">
<g clip-path="url(#clip0_327_31)">
<g filter="url(#filter0_d_327_31)">
<circle cx="56" cy="54" r="40" fill="white"/>
</g>
<path d="M68.9609 41.8672L63.2734 40.5547C62.6719 40.3906 62.0156 40.7188 61.7422 41.3203L59.1172 47.4453C58.8984 47.9922 59.0625 48.5938 59.5 48.9766L62.8359 51.7109C60.8672 55.8672 57.4219 59.3672 53.1562 61.3906L50.4219 58.0547C50.0391 57.6172 49.4375 57.4531 48.8906 57.6719L42.7656 60.2969C42.1641 60.5703 41.8906 61.2266 42 61.8281L43.3125 67.5156C43.4766 68.1172 43.9688 68.5 44.625 68.5C58.625 68.5 70 57.1797 70 43.125C70 42.5234 69.5625 42.0312 68.9609 41.8672Z" fill="#5F5FFF"/>
</g>
<defs>
<filter id="filter0_d_327_31" x="0" y="0" width="112" height="112" filterUnits="userSpaceOnUse" color-interpolation-filters="sRGB">
<feFlood flood-opacity="0" result="BackgroundImageFix"/>
<feColorMatrix in="SourceAlpha" type="matrix" values="0 0 0 0 0 0 0 0 0 0 0 0 0 0 0 0 0 0 127 0" result="hardAlpha"/>
<feOffset dy="2"/>
<feGaussianBlur stdDeviation="8"/>
<feColorMatrix type="matrix" values="0 0 0 0 0.0776 0 0 0 0 0.0917531 0 0 0 0 0.471057 0 0 0 0.14007 0"/>
<feBlend mode="normal" in2="BackgroundImageFix" result="effect1_dropShadow_327_31"/>
<feBlend mode="normal" in="SourceGraphic" in2="effect1_dropShadow_327_31" result="shape"/>
</filter>
<clipPath id="clip0_327_31">
<rect width="112" height="112" fill="white"/>
</clipPath>
</defs>
</svg>
